#!OML:ASF E:\id_vita\Project 1\Capture day 1\Session 1\Female.ASF
:FULLY-SPECIFIED
:DEGREES
1075
root -3.79245 13.1753 -1.03233 -194.708 -89.259 -108.247
lowerback 0.144168 1.26916 -2.71726
upperback -0.881214 1.63942 -2.22165
thorax -0.995585 0.825214 -0.770953
lowerneck 2.38007 0.956631 -1.07494
upperneck 7.68616 0.674985 7.10368
head 1.99626 0.375129 2.47014
rclavicle 3.94588e-014 -5.66536e-014
rhumerus 13.5652 24.3238 -75.6128
rradius 40.7826
rwrist 21.0359
rhand -42.4858 623.326
rfingers 7.12502
rthumb -15.3631 67.2653
lclavicle 3.94588e-014 -5.66536e-014
lhumerus 19.5893 -37.0108 64.4488
lradius 45.4844
lwrist -15.5224
lhand -63.5896 266.343
lfingers 7.12502
lthumb -35.562 -840.08
rfemur -53.6585 0.265082 29.8295
rtibia 69.8931
rfoot -28.6332 -1.00355
rtoes -14.9145
lfemur -100.475 5.65109 -24.3258
ltibia 105.47
lfoot -25.7366 8.26762
ltoes -4.00454
1076
root -3.85217 13.1594 -1.0228 -181.062 -89.2042 -121.818
lowerback -0.00499087 1.19772 -2.78261
upperback -0.926342 1.54748 -2.23503
thorax -0.959027 0.77912 -0.744323
lowerneck 2.19387 0.937672 -1.41608
upperneck 7.81555 0.62689 7.31267
head 2.07511 0.351511 2.60665
rclavicle -1.23246e-014 -1.35174e-014
rhumerus 13.554 24.4319 -75.7705
rradius 40.8655
rwrist 21.1627
rhand -41.9916 623.532
rfingers 7.12502
rthumb -14.887 67.0228
lclavicle -1.23246e-014 -1.35174e-014
lhumerus 19.749 -37.4007 63.8328
lradius 45.513
lwrist -15.0549
lhand -63.3984 265.25
lfingers 7.12502
lthumb -35.3808 -841.216
rfemur -53.4168 0.0633089 29.7024
rtibia 69.7439
rfoot -28.5832 -0.9808
rtoes -15.4882
lfemur -101.414 5.40214 -24.7144
ltibia 105.137
lfoot -26.1676 8.43739
ltoes -4.31438
1077
root -3.91052 13.1436 -1.01155 -173.603 -89.1197 -129.262
lowerback -0.0826863 1.18819 -2.82853
upperback -0.98891 1.53616 -2.20051
thorax -0.981722 0.7745 -0.682364
lowerneck 2.48102 0.954899 -0.971018
upperneck 7.59941 0.704007 6.74799
head 1.94746 0.384111 2.33008
rclavicle -4.77083e-015 -4.3832e-014
rhumerus 13.4633 24.5471 -75.7828
rradius 40.9633
rwrist 21.2194
rhand -41.826 623.344
rfingers 7.12502
rthumb -14.7275 67.1994
lclavicle -4.77083e-015 -4.3832e-014
lhumerus 19.732 -37.7018 63.6294
lradius 45.6075
lwrist -14.6706
lhand -63.3496 264.929
lfingers 7.12502
lthumb -35.3345 -841.548
rfemur -53.1399 -0.0750806 29.5785
rtibia 69.6556
rfoot -28.5375 -0.559825
rtoes -14.9761
lfemur -102.24 5.18005 -25.0482
ltibia 104.773
lfoot -26.7638 8.46863
ltoes -5.05792
1078
root -3.96955 13.1339 -1.00165 -169.815 -88.9097 -133.194
lowerback 0.0374074 1.28907 -2.86149
upperback -0.97706 1.66751 -2.14648
thorax -1.04067 0.841787 -0.612685
lowerneck 2.47241 0.876013 -1.3003
upperneck 7.52898 0.599396 6.85807
head 1.93115 0.326295 2.42489
rclavicle -5.06901e-015 2.20651e-014
rhumerus 13.4868 24.7089 -75.451
rradius 41.1085
rwrist 21.0986
rhand -42.3504 622.671
rfingers 7.12502
rthumb -15.2327 67.9098
lclavicle -5.06901e-015 2.20651e-014
lhumerus 19.5634 -37.6025 63.9943
lradius 45.7192
lwrist -14.804
lhand -63.2721 265.281
lfingers 7.12502
lthumb -35.261 -841.214
rfemur -52.7552 -0.0971393 29.5041
rtibia 69.5755
rfoot -28.3938 -0.0690456
rtoes -14.5043
lfemur -102.828 5.11015 -25.34
ltibia 104.396
lfoot -27.2773 8.4616
ltoes -5.14913
1079
root -4.02645 13.1175 -0.991684 -164.556 -88.6537 -138.568
lowerback 0.113168 1.40773 -2.91315
upperback -0.942124 1.82429 -2.13608
thorax -1.05098 0.920978 -0.576449
lowerneck 2.17738 0.83696 -1.52341
upperneck 7.62896 0.53603 6.97183
head 2.01988 0.299214 2.50795
rclavicle -1.85367e-014 -2.84262e-014
rhumerus 13.5626 24.7655 -75.0631
rradius 41.297
rwrist 20.9704
rhand -42.7161 622.356
rfingers 7.12502
rthumb -15.585 68.2519
lclavicle -1.85367e-014 -2.84262e-014
lhumerus 19.5517 -37.6276 64.1476
lradius 45.8882
lwrist -14.6871
lhand -63.2908 265.034
lfingers 7.12502
lthumb -35.2787 -841.456
rfemur -52.3457 -0.0102776 29.2972
rtibia 69.4272
rfoot -28.441 0.283826
rtoes -13.7182
lfemur -103.483 5.02343 -25.7237
ltibia 103.982
lfoot -27.4668 8.62948
ltoes -5.94122
1080
root -4.08393 13.1023 -0.983724 -162.7 -88.5608 -140.419
lowerback 0.0381436 1.42785 -2.84712
upperback -0.940097 1.85554 -2.12987
thorax -1.00521 0.935871 -0.605115
lowerneck 2.24059 0.808718 -1.74808
upperneck 7.34176 0.508506 7.16684
head 1.91722 0.279217 2.60941
rclavicle -3.34455e-014 -1.08338e-014
rhumerus 13.6046 24.8208 -74.9067
rradius 41.4129
rwrist 20.9106
rhand -42.3 622.889
rfingers 7.12502
rthumb -15.1841 67.6878
lclavicle -3.34455e-014 -1.08338e-014
lhumerus 19.4527 -37.6502 64.1472
lradius 46.0971
lwrist -14.4916
lhand -63.4156 264.486
lfingers 7.12502
lthumb -35.3971 -841.977
rfemur -51.8686 0.0629414 29.1114
rtibia 69.1276
rfoot -28.7003 0.0702254
rtoes -14.2747
lfemur -104.346 4.77512 -25.9857
ltibia 103.36
lfoot -27.3988 8.66501
ltoes -6.92929
1081
root -4.145 13.0941 -0.976686 -159.631 -88.4517 -143.437
lowerback -0.0442414 1.43988 -2.85861
upperback -0.997819 1.87314 -2.13174
thorax -1.01872 0.945152 -0.59955
lowerneck 2.40076 0.871858 -1.63628
upperneck 6.93518 0.642624 6.86385
head 1.74873 0.337531 2.48016
rclavicle -1.15792e-014 -1.42628e-014
rhumerus 13.5473 24.8801 -74.8763
rradius 41.4748
rwrist 20.9419
rhand -41.8735 623.297
rfingers 7.12502
rthumb -14.7733 67.2494
lclavicle -1.15792e-014 -1.42628e-014
lhumerus 19.2917 -37.6498 64.2385
lradius 46.2042
lwrist -14.462
lhand -63.3746 264.694
lfingers 7.12502
lthumb -35.3582 -841.778
rfemur -51.4448 0.071834 28.9505
rtibia 68.7866
rfoot -28.7756 -0.378011
rtoes -15.9593
lfemur -105.182 4.55965 -26.2665
ltibia 102.631
lfoot -27.6241 8.40957
ltoes -6.90875
1082
root -4.20775 13.0851 -0.967668 -156.326 -88.2068 -146.69
lowerback -0.147002 1.47517 -2.96425
upperback -1.07249 1.92094 -2.15635
thorax -1.04099 0.970199 -0.564803
lowerneck 2.66769 0.910567 -1.75678
upperneck 6.658 0.708531 6.91695
head 1.60912 0.359736 2.51364
rclavicle 5.64548e-014 6.3959e-014
rhumerus 13.4335 24.8241 -74.9971
rradius 41.5783
rwrist 21.1589
rhand -41.9824 623.089
rfingers 7.12502
rthumb -14.8782 67.4653
lclavicle 5.64548e-014 6.3959e-014
lhumerus 19.0412 -37.4862 64.4554
lradius 46.2446
lwrist -14.6038
lhand -63.3149 265.142
lfingers 7.12502
lthumb -35.3016 -841.343
rfemur -51.1485 0.133716 28.7366
rtibia 68.5249
rfoot -28.7028 -0.209844
rtoes -16.062
lfemur -105.903 4.45886 -26.6335
ltibia 101.926
lfoot -28.3826 8.4428
ltoes -7.95516
1083
root -4.2708 13.0753 -0.959455 -155.975 -87.9606 -147.068
lowerback -0.219716 1.49852 -2.99601
upperback -1.079 1.95477 -2.17049
thorax -1.00791 0.986971 -0.559887
lowerneck 2.72712 1.01767 -2.17707
upperneck 6.6282 0.819205 7.41813
head 1.58401 0.408132 2.75895
rclavicle 3.32964e-015 -2.46493e-014
rhumerus 13.4088 24.8566 -75.0844
rradius 41.7875
rwrist 21.2853
rhand -42.0857 622.924
rfingers 7.12502
rthumb -14.9777 67.6381
lclavicle 3.32964e-015 -2.46493e-014
lhumerus 18.682 -37.1099 64.7038
lradius 46.4068
lwrist -14.92
lhand -63.2898 265.335
lfingers 7.12502
lthumb -35.2778 -841.156
rfemur -50.7713 0.190958 28.6098
rtibia 68.3227
rfoot -28.6149 0.1232
rtoes -15.2251
lfemur -106.451 4.38412 -26.8755
ltibia 101.282
lfoot -29.0793 9.18237
ltoes -11.554
